PathFileType	4	(X/Y/Z)	Patient4_TMGait_0pt6_01_right_22.trc.trc
DataRate	CameraRate	NumFrames	NumMarkers	Units	OrigDataRate	OrigDataStartFrame	OrigNumFrames
79.545454545454	79.545454545454	4	33	mm	79.545454545454	71	       141
Frame#	Time	Sacral			L.Shoulder			Chest			R.Shoulder			Neck			R.ASIS			L.ASIS			R.Thigh.Superior			R.Thigh.Lateral			R.Thigh.Inferior			R.Patella			L.Thigh.Superior			L.Thigh.Lateral			L.Thigh.Inferior			L.Patella			L.Shank.Superior			L.Shank.Lateral			L.Shank.Inferior			R.Shank.Superior			R.Shank.Lateral			R.Shank.Inferior			R.Heel			R.Midfoot.Superior			R.Midfoot.Lateral			R.Toe			L.Heel			L.Midfoot.Lateral			L.Midfoot.Superior			L.Toe			L.Elbow			L.Wrist			R.Elbow			R.Wrist			
		X1	Y1	Z1	X2	Y2	Z2	X3	Y3	Z3	X4	Y4	Z4	X5	Y5	Z5	X6	Y6	Z6	X7	Y7	Z7	X8	Y8	Z8	X9	Y9	Z9	X10	Y10	Z10	X11	Y11	Z11	X12	Y12	Z12	X13	Y13	Z13	X14	Y14	Z14	X15	Y15	Z15	X16	Y16	Z16	X17	Y17	Z17	X18	Y18	Z18	X19	Y19	Z19	X20	Y20	Z20	X21	Y21	Z21	X22	Y22	Z22	X23	Y23	Z23	X24	Y24	Z24	X25	Y25	Z25	X26	Y26	Z26	X27	Y27	Z27	X28	Y28	Z28	X29	Y29	Z29	X30	Y30	Z30	X31	Y31	Z31	X32	Y32	Z32	X33	Y33	Z33	

71	27.030000000000	659.019532909352	999.256645405476	540.878707247473	793.214496179842	1426.184132669649	348.552868040978	922.120687759165	1357.430813834693	490.062039311079	866.293636123814	1428.006942952470	674.619698685381	798.448412778265	1483.839660790959	504.679859978108	889.414618855472	928.769390610801	639.690944153541	856.261411869366	949.626596954717	365.532011401114	876.665939506165	714.730796359975	611.663867276598	766.061237007693	625.671769492973	670.889850562421	822.831547700204	557.967956563622	590.810874313602	797.751973888501	473.712884759743	592.610050824312	937.615829666792	769.282350172525	398.687105523216	888.887281011854	637.530611371379	324.879162640456	996.053416717596	583.475957512389	383.391693147243	1022.359903268034	515.098692136731	381.434034474101	1003.937194380378	440.208759970579	375.396215252670	931.092966433813	311.668221064251	331.848337532686	1015.006071138183	211.431675773022	388.233821825489	754.796375572734	391.853975567574	597.655015397656	664.942760740318	300.981854692699	656.027679393523	690.371889785185	202.039324993790	589.677272335699	535.196478810803	48.192802204133	549.550573231602	706.988114002102	96.871948446653	594.797028432016	614.961118794024	37.071078116454	626.128089761316	823.518425203537	38.753572288384	625.298681565344	923.005033347162	40.445692005384	433.686200927901	994.908571275543	40.091475501094	351.664897871550	1071.657028788840	110.851054621936	370.010862866954	1202.116669800242	70.753666445067	340.949173071028	658.649466293137	1096.182355072956	259.458144487618	628.471057381304	837.805470295709	268.843274546807	1035.774637931256	1138.398352883590	789.520066662633	1253.374919230351	1245.058782814339	722.518223662555	
72	27.042571428571	660.289832066083	998.556364750134	538.265853556498	793.484792665854	1425.312704112722	346.549589006864	922.562485706743	1356.928361990909	488.056650423761	866.507397792786	1427.292138314839	672.725361109151	798.595786190938	1483.063004487008	502.784254447071	890.487508060697	927.580599393173	637.738326518088	857.921923484425	948.759430446023	363.552137617434	876.692444060609	713.428788798009	610.141988910664	765.264155361386	625.172229446606	669.235455018038	821.838697296183	556.751805831707	589.500447019455	795.888970874232	472.261495704313	591.230720752085	938.855146834758	767.705539532021	397.189550040501	888.599173724097	635.901595112854	324.858824516027	995.758796806926	581.638755044393	383.257543386313	1020.657989731970	512.198577790016	382.084244848555	1001.352950694199	436.992345804096	376.294351049547	926.367622248050	309.477598377614	333.256793274779	1008.167414268747	208.058006042711	390.573541103892	751.813447285177	391.017453716543	596.665652472582	660.717255913771	301.613587819084	655.457784146941	684.659157482086	202.080273855885	589.490190402322	527.762304825540	49.537857462121	549.979107454942	699.796386136038	97.061277423398	595.050664993681	607.530990818427	37.517093483652	626.401914228144	816.005421333387	38.455791936378	625.386472494001	912.185943507529	39.433656060748	435.588955251241	984.516353266887	38.392233629925	353.876153679339	1062.912800154742	106.891243503417	373.589000335273	1192.793104228687	63.839758022889	344.768882477080	658.428223168533	1095.416019180651	258.253796564467	627.935597094047	837.092421460532	267.361058686813	1035.862662554434	1137.481689427693	788.190297710731	1253.525694337416	1244.324422824215	721.557736308517	
73	27.055142857143	661.575694008349	998.076322735468	535.479399220336	794.034259764208	1424.648312685752	344.443291277641	923.168369278872	1356.617560921467	486.051928029259	866.748151749245	1426.757302085593	670.804608246627	798.888170046643	1482.496302300436	500.806922756067	891.605492890288	926.581716640908	635.598767293145	859.673426385346	948.119114787666	361.446853840211	876.927017708762	712.337914909353	608.464316601265	764.783387945656	624.804827083550	667.455887945350	821.272594011482	555.687275192615	588.098205295841	794.529824585898	470.814736985371	589.856600405360	939.980297871980	766.139998489638	395.604019644959	888.221285649658	634.560921697240	324.497398496915	995.182018139542	579.883692143922	383.019355318212	1018.653396914568	509.527003557117	382.563543069707	998.608574679174	434.107914884734	376.863859730035	921.810335755107	307.540394000485	334.150079229148	1001.544558630485	205.092693870952	392.457193792587	749.189690048009	390.285302880332	595.669462948215	656.730151811647	302.492161221052	654.839997647941	679.171395881512	202.326178620587	589.354352971403	520.417191217530	51.298427964541	550.448145168803	692.768409006871	97.322757797912	595.358442652202	600.161975494601	38.145966571474	626.689283988035	808.526631323891	38.151022115202	625.465226814605	901.860593966154	38.577845834576	436.988744229073	974.609996116037	37.092287615827	355.568758536002	1054.395299917235	103.570943440894	376.681366747881	1183.793700355700	58.008495389039	348.091276020407	659.151829284733	1094.540288052782	256.723612875800	628.657966752764	836.241617666251	265.474157285015	1035.194428101900	1136.083973065574	786.853289103192	1253.554528088621	1242.047991467561	720.763639381703	
74	27.067714285714	662.846566428331	997.877882602371	532.567789015530	794.856410536234	1424.256677882669	342.255789655071	923.936281813865	1356.541842907427	484.057124588123	867.047341031817	1426.473005112291	668.857245166137	799.323416286265	1482.193522788292	498.763836852615	892.723775275690	925.840782149763	633.267900316282	861.447754763882	947.779950474475	359.203403411938	877.345995431831	711.527615207474	606.601630417360	764.666338910781	624.595602901535	665.569852562480	821.198938152986	554.823065167904	586.613732573109	793.786894610376	469.384480707307	588.556511422644	940.985225778123	764.742301261024	393.912580806195	887.803017388533	633.605872030463	323.741750865295	994.354291153437	578.325582881571	382.593739496740	1016.416574073099	507.224004783891	382.777768512402	995.786790654934	431.676647611041	377.055799863482	917.539595252442	305.963107565901	334.449974600245	995.251747138398	202.653518495888	393.811663107866	747.004779707684	389.678503005142	594.706609949959	653.043724941939	303.659729903552	654.195507653714	673.969671363052	202.816886471822	589.294258128083	513.190849950765	53.559466147144	550.964017412745	685.955571796802	97.672389046550	595.740737267094	592.872029076282	39.004334761962	626.990177889934	801.088012701561	37.854356736306	625.523773834926	892.237534490696	37.927404112423	437.914286843336	965.350868384134	36.201479598675	356.732247662122	1046.231902140907	100.991508308684	379.143388121164	1175.250770758702	53.432855931763	350.729457748327	660.850156903746	1093.618878296656	254.854512877547	630.678750169477	835.311928089920	263.182833637858	1033.742713543429	1134.274802915212	785.474804550692	1253.452125800950	1238.188160437291	720.126496639703	
